<svg width="140" height="26" viewBox="0 0 140 26" fill="none" xmlns="http://www.w3.org/2000/svg">
<g clip-path="url(#clip0_2_2)">
<path d="M131.704 24.1613V19.3999H136.844V24.5394H131.704V24.1613Z" fill="white"/>
<path d="M138.734 7.04887H111.968V0.871143H139.112V7.04887H138.734Z" fill="white"/>
<path d="M128.628 9.9946V24.5394H122.451V9.61642H128.628V9.9946Z" fill="white"/>
<path d="M97.4017 7.04887H92.564V1.31559L92.1891 0.871143H100.475V1.11175L111.968 14.7242V9.61643H118.145V24.5389L112.301 24.6926L112.171 24.5389H111.968V24.2983C107.11 18.5494 102.256 12.7989 97.4017 7.04831V7.04887Z" fill="white"/>
<path d="M98.7417 11.5886V24.5394H92.564V9.95282H97.3605L98.7417 11.5886Z" fill="white"/>
<path d="M88.9299 24.5394H67.3184V18.3617H89.3075V24.5394H88.9299Z" fill="white"/>
<path d="M88.9299 15.7942H67.3184V9.61642H89.3075V15.7942H88.9299Z" fill="white"/>
<path d="M88.9299 7.04887H67.3184V0.871143H89.3075V7.04887H88.9299Z" fill="white"/>
<path d="M39.8667 0.496311C44.0678 0.495754 55.3272 0.241783 57.7817 0.963595C67.158 3.72107 67.192 21.7068 57.7349 24.4052C54.7302 25.2624 47.2625 24.9176 44.0244 24.9176V8.52257H50.176V19.5402C55.5545 19.597 58.4244 20.0638 58.4244 12.7109C58.4244 5.25993 54.9997 5.86033 49.4218 5.87592L39.1115 5.87759V0.497425L39.8673 0.496868L39.8667 0.496311Z" fill="white"/>
<path d="M36.2031 24.1613V19.3999H41.3432V24.5394H36.2031V24.1613Z" fill="white"/>
<path d="M34.4008 1.24931V24.5394H28.2231V0.871143H34.4008V1.24931Z" fill="white"/>
<path d="M21.446 24.1613V19.3999H26.5862V24.5394H21.446V24.1613Z" fill="white"/>
<path d="M0.765254 15.9874L5.96943 15.4706C7.57401 24.4531 18.0815 17.8465 12.4407 15.8593C8.44453 14.4513 0.947378 14.1701 0.947378 7.2438C0.947378 -1.60507 16.1299 -2.30126 18.9604 4.90738L19.5713 8.56768L13.5167 8.77654C13.1179 6.40559 12.6534 5.42925 9.98061 5.42925C7.0683 5.42925 5.36402 7.21484 8.56038 8.37442C13.021 9.99237 20.2196 9.91774 20.2196 17.4945C20.2196 26.3969 7.5573 26.9622 3.12674 23.1448C0.917302 21.2412 0.325261 18.8385 0 16.0626L0.765254 15.9874Z" fill="white"/>
</g>
<defs>
<clipPath id="clip0_2_2">
<rect width="139.112" height="25.3822" fill="white"/>
</clipPath>
</defs>
</svg>
