<svg width="50" height="50" viewBox="0 0 50 50" fill="none" xmlns="http://www.w3.org/2000/svg">
<g clip-path="url(#clip0_2_2)">
<path d="M25 50C38.8071 50 50 38.8071 50 25C50 11.1929 38.8071 0 25 0C11.1929 0 0 11.1929 0 25C0 38.8071 11.1929 50 25 50Z" fill="#171F25"/>
<path d="M25 5.56705C29.1929 5.56705 33.0759 6.89526 36.2511 9.15362H31.0925C29.2013 8.42596 27.1472 8.02704 25 8.02704C22.8526 8.02704 20.7984 8.42596 18.9072 9.15362H13.7486C16.9239 6.89526 20.8065 5.56705 24.9997 5.56705H25ZM43.9598 20.7207C44.2692 22.0978 44.433 23.5297 44.433 25C44.433 28.3621 43.5791 31.5246 42.0761 34.283C41.7092 33.4918 41.0102 32.8832 40.1606 32.6385C41.3195 30.3426 41.9727 27.7477 41.9727 25C41.9727 24.5332 41.9536 24.071 41.9166 23.614L43.9595 20.7207H43.9598ZM31.5856 43.2882C30.2253 43.7781 28.7948 44.1207 27.313 44.2963L29.3512 41.4097C30.1187 41.2066 30.8646 40.9512 31.5856 40.6476V43.2882ZM21.1052 44.0424C17.3014 43.2685 13.9014 41.3837 11.2592 38.7411C7.74251 35.2244 5.56734 30.3663 5.56734 25C5.56734 22.3621 6.09336 19.8472 7.04547 17.5539L8.62326 20.5263C8.23474 21.9516 8.02733 23.4514 8.02733 25C8.02733 29.6872 9.92721 33.9303 12.9984 37.0019C14.8151 38.8185 17.042 40.2253 19.5283 41.0714L21.1052 44.0424Z" fill="#FDFFFF"/>
<path fill-rule="evenodd" clip-rule="evenodd" d="M26.1566 16.9868L23.5138 10.7692H28.9052L30.9486 15.6829L30.2426 15.875L33.822 24.4826L34.3934 23.9664L36.3551 28.6836L33.0929 33.3038L30.5858 27.406L31.388 26.6815L27.1521 16.7164L26.1569 16.9871L26.1566 16.9868ZM22.187 31.9163L15.7638 19.8148L17.0553 19.4636L12.4403 10.7692H5.27211L24.0389 46.1257L26.3704 42.8237L25.611 33.2645L30.6219 36.8025L32.2482 34.4994L21.0393 10.7695L17.287 10.6664L20.9429 18.406L21.6887 18.2032L26.542 28.478L22.9742 27.605L22.187 31.9166V31.9163ZM35.1621 14.5361L37.8731 13.7983L38.1969 14.465L40.3645 13.7238L38.9292 10.7692H30.5803L37.4614 27.1159L43.0357 19.2215L41.4397 15.9365L39.5419 17.2332L40.245 18.6807L37.8263 20.8654L35.1621 14.5361Z" fill="#24D0FD"/>
<path fill-rule="evenodd" clip-rule="evenodd" d="M32.4646 43.3953H39.5901C40.5878 43.3953 41.4045 42.579 41.4045 41.581V39.8111C41.4045 39.1175 40.8371 38.5502 40.1436 38.5502C40.8371 38.5502 41.4045 37.9828 41.4045 37.2893V35.5194C41.4045 34.5216 40.5881 33.705 39.5901 33.705H32.4646V35.9452H38.4144C38.8232 35.9452 39.1577 36.2797 39.1577 36.6884C39.1577 37.0972 38.8232 37.4317 38.4144 37.4317H33.956V39.6652H38.4115C38.8203 39.6652 39.1548 39.9997 39.1548 40.4085C39.1548 40.8172 38.8203 41.1517 38.4115 41.1517H32.4643V43.3945L32.4646 43.3953Z" fill="#FA9000"/>
</g>
<defs>
<clipPath id="clip0_2_2">
<rect width="50" height="50" fill="white"/>
</clipPath>
</defs>
</svg>
